<svg width="16" height="16" viewBox="0 0 16 16" fill="none" xmlns="http://www.w3.org/2000/svg">
<path d="M6.66666 2H12.6667C12.8435 2 13.013 2.07024 13.1381 2.19526C13.2631 2.32029 13.3333 2.48986 13.3333 2.66667V10" stroke="#6B7785" stroke-width="1.33333"/>
<path d="M2.66667 13.3333V5.33329C2.66667 5.15648 2.7369 4.98691 2.86193 4.86189C2.98695 4.73686 3.15652 4.66663 3.33333 4.66663H10C10.3683 4.66663 10.6667 4.96396 10.6667 5.33229V13.336C10.6668 13.4233 10.6496 13.5098 10.6161 13.5906C10.5827 13.6713 10.5336 13.7446 10.4718 13.8063C10.4099 13.868 10.3365 13.9168 10.2557 13.9501C10.1749 13.9833 10.0884 14.0003 10.001 14H3.332C3.24451 14 3.15789 13.9827 3.07708 13.9492C2.99627 13.9157 2.92286 13.8665 2.86106 13.8046C2.79927 13.7427 2.75029 13.6692 2.71693 13.5883C2.68357 13.5074 2.66649 13.4208 2.66667 13.3333V13.3333Z" stroke="#6B7785" stroke-width="1.33333"/>
</svg>
