<svg width="32" height="32" viewBox="0 0 32 32" fill="none" xmlns="http://www.w3.org/2000/svg">
<g style="mix-blend-mode:multiply">
<path d="M11.8371 14.4356C11.2328 14.4357 10.653 14.6796 10.2257 15.1137C9.79841 15.5479 9.55837 16.1367 9.55839 16.7507C9.5584 17.3647 9.79848 17.9535 10.2258 18.3876C10.6531 18.8217 11.2327 19.0656 11.837 19.0656C12.4413 19.0656 13.0209 18.8217 13.4482 18.3876C13.8755 17.9535 14.1156 17.3647 14.1156 16.7507C14.1156 16.1367 13.8756 15.5479 13.4483 15.1137C13.021 14.6796 12.4415 14.4357 11.8371 14.4356ZM19.962 14.4356C19.4644 14.3928 18.9657 14.5036 18.5311 14.7535C18.0965 15.0034 17.7463 15.3809 17.5264 15.8364C17.3064 16.2919 17.227 16.8042 17.2984 17.3063C17.3698 17.8085 17.5888 18.277 17.9267 18.6506C18.2646 19.0242 18.7057 19.2854 19.1921 19.4001C19.6786 19.5148 20.1878 19.4776 20.6531 19.2934C21.1184 19.1091 21.5181 18.7865 21.7999 18.3676C22.0817 17.9487 22.2324 17.4532 22.2324 16.9458C22.2457 16.6295 22.1975 16.3136 22.0906 16.0163C21.9836 15.7189 21.8201 15.4458 21.6092 15.2127C21.3984 14.9796 21.1444 14.791 20.8617 14.6576C20.5791 14.5243 20.2734 14.4489 19.962 14.4356ZM22.188 24.997C22.188 24.997 21.3865 24.0246 20.7186 23.1652C22.3322 22.7792 23.7595 21.8259 24.7479 20.474C23.947 21.0156 23.0882 21.4632 22.188 21.8082C21.1524 22.2573 20.0694 22.5836 18.9603 22.7807C17.0538 23.1373 15.0987 23.1296 13.195 22.7582C12.0774 22.5359 10.982 22.2104 9.92261 21.7858C9.36426 21.5675 8.82132 21.3106 8.29763 21.0168C8.23078 20.9714 8.16421 20.9489 8.09738 20.9037C8.06389 20.8868 8.03371 20.8638 8.00835 20.8359C7.60785 20.6098 7.38487 20.4514 7.38487 20.4514C8.33763 21.775 9.71553 22.7189 11.2805 23.12C10.6129 23.9795 9.78921 24.997 9.78921 24.997C8.46693 25.0332 7.15616 24.7386 5.97228 24.1392C4.78839 23.5398 3.76769 22.6539 3 21.5595C3.07228 16.9747 4.16826 12.4664 6.20529 8.37463C7.998 6.94419 10.1836 6.11446 12.4603 6L12.6827 6.2715C10.5408 6.80997 8.54198 7.82148 6.82857 9.23405C6.82857 9.23405 7.31837 8.9627 8.14184 8.57821C9.74199 7.83609 11.4474 7.35528 13.1952 7.15354C13.3198 7.12719 13.4465 7.11201 13.5737 7.10818C15.0654 6.91076 16.5749 6.89563 18.0701 7.06309C20.4215 7.33586 22.6977 8.07336 24.7704 9.23405C23.1438 7.88889 21.2547 6.90992 19.2279 6.36189L19.5394 6.00022C21.8161 6.11459 24.0018 6.94433 25.7944 8.37485C27.8316 12.4665 28.9277 16.9748 29 21.5596C28.2261 22.6529 27.2009 23.5377 26.0137 24.1367C24.8265 24.7358 23.5132 25.0311 22.188 24.997Z" fill="#957673" fill-opacity="0.8"/>
</g>
</svg>
