<svg width="32" height="32" viewBox="0 0 32 32" fill="none" xmlns="http://www.w3.org/2000/svg">
<g clip-path="url(#clip0_2738_6454)">
<path d="M3.92106 14.5798L11.9787 18.7991C11.9787 18.7991 13.4586 19.7503 15.4572 18.7991C17.4621 17.8479 29.5928 11.8482 29.5928 11.8482C29.5928 11.8482 31.4206 11.0373 28.9224 9.88491C26.4241 8.73253 19.2646 5.20222 19.2646 5.20222C19.2646 5.20222 18.2464 4.55592 16.1719 5.57416C14.0974 6.5924 1.68214 12.8299 1.68214 12.8299C1.68214 12.8299 0.170552 13.2689 0.240123 16.287C0.278071 17.3358 0.486784 19.171 2.80793 20.2198C4.6737 21.2685 11.5296 25 11.5296 25L11.8079 23.2684L2.52332 18.2199C2.52332 18.2199 1.18882 17.2748 1.89085 15.0005C1.99837 14.592 2.47272 13.5433 3.92106 14.5798Z" fill="#AA918F"/>
<path d="M14.204 27.6415C12.6168 27.6415 11.324 26.3487 11.324 24.7615C11.324 23.1743 12.6168 21.8815 14.204 21.8815C15.7912 21.8815 17.084 23.1743 17.084 24.7615C17.084 26.3487 15.7912 27.6415 14.204 27.6415ZM14.204 23.6415C13.5896 23.6415 13.084 24.1407 13.084 24.7615C13.084 25.3823 13.5832 25.8815 14.204 25.8815C14.8184 25.8815 15.324 25.3823 15.324 24.7615C15.324 24.1407 14.8184 23.6415 14.204 23.6415ZM29.1224 19.7375C27.5352 19.7375 26.2424 18.4447 26.2424 16.8575C26.2424 15.2703 27.5352 13.9775 29.1224 13.9775C30.7096 13.9775 32.0024 15.2703 32.0024 16.8575C32.0024 18.4447 30.7096 19.7375 29.1224 19.7375ZM29.1224 15.7439C28.508 15.7439 28.0024 16.2431 28.0024 16.8639C28.0024 17.4847 28.5016 17.9839 29.1224 17.9839C29.7368 17.9839 30.2424 17.4847 30.2424 16.8639C30.2424 16.2431 29.7368 15.7439 29.1224 15.7439Z" fill="#AA918F"/>
<path d="M16.2008 23.1297L26.6584 17.6641L27.5928 19.0849L16.2008 25.1713V23.1297Z" fill="#AA918F"/>
</g>
<defs>
<clipPath id="clip0_2738_6454">
<rect width="32" height="32" fill="white"/>
</clipPath>
</defs>
</svg>
