<svg width="32" height="32" viewBox="0 0 32 32" fill="none" xmlns="http://www.w3.org/2000/svg">
<path d="M16 4.00062C12.8511 3.96852 9.81823 5.19183 7.56807 7.4017C5.31791 9.61157 4.03454 12.6272 4 15.7858C4.01213 18.282 4.81267 20.7101 6.28661 22.7213C7.76056 24.7326 9.83208 26.2235 12.2036 26.98C12.8036 27.0894 13.0218 26.7283 13.0218 26.411V24.4085C9.68364 25.1198 8.97455 22.8328 8.97455 22.8328C8.75232 22.1148 8.27989 21.5011 7.64364 21.1039C6.55273 20.3816 7.73091 20.3926 7.73091 20.3926C8.10798 20.4432 8.46875 20.5787 8.78616 20.7891C9.10356 20.9994 9.36937 21.2791 9.56364 21.6072C9.90218 22.1961 10.4577 22.628 11.1106 22.8102C11.7634 22.9923 12.4615 22.9101 13.0545 22.5811C13.1155 21.9819 13.3861 21.4236 13.8182 21.0054C11.1564 20.7099 8.36364 19.7032 8.36364 15.1839C8.33983 14.0051 8.77408 12.8631 9.57455 11.9996C9.20999 10.9875 9.25304 9.87274 9.69455 8.89195C9.69455 8.89195 10.7091 8.57461 12.9673 10.0956C14.933 9.57021 17.0016 9.57021 18.9673 10.0956C21.2582 8.57461 22.24 8.89195 22.24 8.89195C22.6815 9.87274 22.7246 10.9875 22.36 11.9996C23.1791 12.8473 23.6369 13.9816 23.6364 15.162C23.6364 19.6923 20.8218 20.688 18.1818 20.9835C18.4709 21.265 18.6942 21.6073 18.8357 21.9857C18.9771 22.3641 19.0333 22.7692 19 23.172V26.4001C19 26.7831 19.2182 27.0894 19.8182 26.9691C22.183 26.2079 24.2476 24.7166 25.7169 22.7082C27.1863 20.6998 27.9854 18.2769 28 15.7858C27.9655 12.6272 26.6821 9.61157 24.4319 7.4017C22.1818 5.19183 19.149 3.96852 16 4.00062Z" fill="#957673" fill-opacity="0.8"/>
</svg>
