<svg width="237" height="30" viewBox="0 0 237 30" fill="none" xmlns="http://www.w3.org/2000/svg">
<path d="M88.1669 6.23398C87.875 5.78229 87.6216 5.30307 87.3517 4.83486C86.5089 3.35862 85.6716 1.88238 84.8344 0.41165C84.6305 0.0425906 84.4928 0.0976749 84.2945 0.444701C82.6365 3.33659 80.9675 6.22296 79.2985 9.10934C78.0536 11.2686 76.8087 13.4279 75.5638 15.5872C73.713 18.7875 71.8567 21.9879 70.0059 25.1937C69.086 26.7857 68.1771 28.3886 67.2627 29.986C69.78 29.986 72.2973 29.986 74.8091 29.986C75.2223 29.2534 75.6244 28.5208 76.043 27.7937C80.0806 20.8091 84.1128 13.83 88.1559 6.85092C88.2771 6.63058 88.3156 6.45982 88.1669 6.23398Z" fill="#111C36" fill-opacity="0.1"/>
<path d="M20.2652 6.76832C20.3644 6.59756 20.3864 6.47638 20.2818 6.2946C19.7475 5.39123 19.2297 4.48786 18.7119 3.57898C18.0399 2.39468 17.2907 1.25446 16.7179 0.0150757C16.6848 0.0150757 16.6518 0.0150757 16.6242 0.0150757C15.8145 1.42521 15.0158 2.84086 14.2005 4.251C12.6362 6.95009 11.0608 9.64368 9.4964 12.3428C7.9761 14.9758 6.47783 17.6198 4.95752 20.2473C3.31603 23.0841 1.65251 25.9099 0 28.7356C0 29.1157 0 29.5013 0 29.8814C0.0826253 30.0797 0.253384 29.9695 0.380076 29.9695C2.54486 29.975 4.71515 29.975 6.87994 29.975C6.87994 29.942 6.87443 29.9089 6.87443 29.8759C7.04519 29.6115 7.23247 29.3526 7.39221 29.0772C8.38372 27.3641 9.3642 25.6455 10.3557 23.9324C12.0192 21.0515 13.6828 18.1706 15.3518 15.2897C16.9823 12.4474 18.6182 9.60512 20.2652 6.76832Z" fill="#111C36" fill-opacity="0.1"/>
<path d="M145.47 1.90993C144.231 4.22344 142.992 6.53144 141.758 8.84495C141.664 9.02122 141.532 9.17546 141.664 9.41782C141.973 9.97417 142.248 10.5415 142.54 11.1089C142.881 11.9186 143.272 12.7063 143.697 13.472C143.84 14.0118 144.17 14.469 144.413 14.9647C145.057 16.3088 145.729 17.6363 146.434 19.0629C147.525 16.8761 148.583 14.7609 149.635 12.6512C149.739 12.53 149.822 12.3978 149.822 12.2271C149.916 12.0563 150.004 11.8911 150.097 11.7203C150.252 11.4449 150.422 11.1805 150.56 10.8996C151.855 8.27208 153.265 5.70519 154.493 3.04466C154.653 2.89593 154.735 2.70864 154.79 2.49933C155.242 1.6896 155.705 0.88538 156.024 0.009552C152.841 0.009552 149.657 0.009552 146.467 0.009552C146.131 0.648521 145.806 1.28198 145.47 1.90993ZM152.196 4.55945C152.213 4.55395 152.224 4.54293 152.24 4.53742C152.224 4.54844 152.207 4.55945 152.196 4.55945Z" fill="#111C36" fill-opacity="0.1"/>
<path d="M227.881 13.191C228.09 13.4995 228.195 13.4995 228.393 13.191C229.197 11.9351 230.034 10.6958 230.839 9.43985C231.654 8.17292 232.535 6.94456 233.29 5.64459C233.356 5.53993 233.422 5.44078 233.494 5.33612C233.703 5.1268 233.874 4.88444 233.967 4.598C234.006 4.53741 234.039 4.47131 234.077 4.41071C234.32 4.24546 234.43 3.99208 234.535 3.73319C235.174 2.89041 235.741 1.99806 236.281 1.08918C236.529 0.907401 236.562 0.554867 236.843 0.400633C236.914 0.0756398 236.788 -0.0455445 236.457 0.0150475C236.303 0.0425892 236.138 0.020557 235.978 0.020557C234.32 0.020557 232.667 0.020557 231.009 0.020557C229.417 0.020557 227.825 0.020557 226.234 0.020557C226.267 0.169283 226.156 0.257416 226.096 0.362074C225.077 2.04763 224.052 3.72768 223.022 5.40773C222.862 5.66662 222.84 5.8539 223.028 6.12381C224.664 8.46486 226.278 10.8224 227.881 13.191Z" fill="#111C36" fill-opacity="0.1"/>
<path d="M98.9905 25.1111C98.5829 24.1306 97.988 23.2548 97.4482 22.3514C97.1287 21.8061 96.8037 21.2663 96.4842 20.7209C96.2914 20.2086 95.9664 19.768 95.6965 19.2943C95.4762 18.8977 95.2889 18.479 94.997 18.1265C94.7711 17.5701 94.3745 17.1019 94.1432 16.5621C93.9008 16.0003 93.5262 15.824 92.9589 15.9507C91.9068 15.9507 90.8602 15.9507 89.8081 15.9507C89.1416 15.9507 88.4696 15.9507 87.803 15.9507C87.5166 15.9452 87.2357 15.9397 86.9493 15.9287C86.8005 15.9232 86.6738 15.9507 86.5912 16.0994C85.7209 17.6362 84.8451 19.1676 83.9692 20.6989C83.8701 21.0404 84.151 20.8917 84.2557 20.8917C86.0514 20.9027 87.8471 20.9027 89.6428 20.8917C89.9348 20.8917 90.1 20.9743 90.2322 21.2387C90.425 21.6188 90.6674 21.9768 90.8877 22.3404C91.0254 22.6599 91.1962 22.9628 91.4165 23.2327C91.4992 23.5632 91.736 23.8111 91.8902 24.1031C92.1271 24.5547 92.1381 24.5437 91.6479 24.5547C91.2843 24.5603 90.9208 24.5713 90.5572 24.5823C89.6979 24.5382 88.8386 24.5382 87.9793 24.5823C85.9412 24.5713 83.9086 24.5658 81.8705 24.5603C81.8155 24.5603 81.7604 24.6098 81.7108 24.6374C81.1049 25.6619 80.4879 26.67 79.9041 27.7055C79.4799 28.4602 78.9676 29.1707 78.6371 29.9805C79.5625 29.9805 80.4824 29.9805 81.4078 29.9805C82.1405 29.9805 82.8731 29.9805 83.6057 29.9805C84.4319 29.9805 85.2637 29.9805 86.09 29.9805C86.6628 29.9805 87.2357 29.9805 87.8086 29.9805C88.5081 29.9805 89.2077 29.9805 89.9128 29.9805C90.7115 29.9805 91.5047 29.9805 92.3034 29.9805C93.3555 29.9805 94.4076 29.9805 95.4542 29.9805C97.5859 29.9805 99.7231 29.9805 101.855 29.9805C100.979 28.3059 99.9875 26.7085 98.9905 25.1111ZM89.1911 27.6009C89.1911 27.6559 89.1912 27.7165 89.1967 27.7716C89.1251 27.7055 89.1361 27.6504 89.1911 27.6009ZM92.2593 16.9973C92.2207 17.0579 92.1822 17.1185 92.1326 17.168C92.1381 17.0799 92.1877 17.0028 92.2593 16.9973Z" fill="#111C36" fill-opacity="0.1"/>
<path d="M182.293 0.0150757C181.561 0.0150757 180.828 0.0150757 180.096 0.0150757C178.757 0.0150757 177.419 0.0150757 176.08 0.0150757C173.976 0.0150757 171.877 0.0150757 169.773 0.0150757C168.627 0.0150757 167.481 0.0150757 166.336 0.0150757C163.499 0.0150757 160.668 0.0150757 157.831 0.0150757C157.825 2.06418 157.831 4.1188 157.82 6.16791C157.82 6.43231 157.891 6.53697 158.167 6.53146C159.169 6.51493 160.172 6.51493 161.174 6.50943C161.461 6.50943 161.747 6.50943 162.034 6.50943C162.353 6.50943 162.673 6.50943 162.992 6.50943C163.818 6.50943 164.65 6.50943 165.476 6.50943C166.209 6.50943 166.942 6.50943 167.674 6.50943C169.646 6.50943 171.624 6.50943 173.596 6.50943C175.507 6.50943 177.418 6.50943 179.33 6.50943C180.729 6.51493 182.123 6.52044 183.522 6.53146C183.775 6.53146 183.852 6.44333 183.847 6.20096C183.83 4.14083 183.83 2.08071 183.819 0.0205852C183.312 0.0150769 182.806 0.0150757 182.293 0.0150757ZM168.076 1.19937C168.076 1.20488 168.076 1.21039 168.076 1.2159C168.071 1.2159 168.06 1.2159 168.054 1.2159C168.065 1.21039 168.071 1.20488 168.076 1.19937Z" fill="#111C36" fill-opacity="0.1"/>
<path d="M176.058 8.70171C176.058 8.51994 176.13 8.32164 175.992 8.15088C175.964 8.13986 175.931 8.11783 175.904 8.11783C172.582 8.11232 169.266 8.11232 165.945 8.10681C165.708 8.10681 165.647 8.21147 165.653 8.42079C165.664 9.65466 165.669 10.894 165.675 12.1334C165.675 13.8851 165.675 15.6312 165.675 17.3829C165.675 18.4019 165.675 19.421 165.675 20.4345C165.675 21.3544 165.675 22.2798 165.675 23.1997C165.675 23.6459 165.675 24.0921 165.675 24.5327C165.675 24.6264 165.675 24.7255 165.675 24.8192C165.675 25.0395 165.675 25.2653 165.675 25.4857C165.675 26.7251 165.675 27.9644 165.675 29.2093C165.675 29.4297 165.675 29.6555 165.675 29.8758C165.675 29.9089 165.675 29.9419 165.675 29.9695C169.145 29.9695 172.615 29.9695 176.091 29.9695C176.086 29.7767 176.069 29.5894 176.069 29.3966C176.064 22.5057 176.064 15.6037 176.058 8.70171ZM171.547 18.2091C171.547 18.2532 171.547 18.2973 171.547 18.3413C171.547 18.3524 171.547 18.3689 171.541 18.3799C171.541 18.3248 171.541 18.2642 171.547 18.2091ZM169.101 27.4742C169.073 27.5072 169.035 27.5348 168.991 27.5568C169.029 27.5293 169.068 27.5072 169.101 27.4742Z" fill="#111C36" fill-opacity="0.1"/>
<path d="M203.407 23.5963C202.994 23.5963 202.581 23.5963 202.168 23.5963C201.782 23.5963 201.402 23.5963 201.016 23.5963C200.89 23.5963 200.763 23.5963 200.631 23.5963C200.581 23.5908 200.532 23.5798 200.482 23.5743C200.477 23.2879 200.466 23.0014 200.466 22.715C200.46 20.7761 200.449 18.8371 200.444 16.8982C200.444 16.8045 200.444 16.7054 200.444 16.6117C200.449 16.4355 200.466 16.2647 200.466 16.0884C200.466 13.0864 200.466 10.0843 200.466 7.08779C200.466 6.28357 200.366 6.40475 201.132 6.39373C201.722 6.38822 202.311 6.36069 202.895 6.40475C203.357 6.4378 203.517 6.32763 203.506 5.82086C203.473 3.88192 203.495 1.94849 203.495 0.009552C201.264 0.009552 199.039 0.009552 196.808 0.009552C195.376 0.009552 193.944 0.009552 192.506 0.009552C190.82 0.009552 189.129 0.009552 187.444 0.009552C187.455 0.180311 187.477 0.356578 187.477 0.527337C187.477 2.31755 187.488 4.10777 187.471 5.90349C187.466 6.3056 187.587 6.41577 187.978 6.40475C188.815 6.38272 189.658 6.41577 190.501 6.42679C190.501 7.4899 190.495 8.55301 190.495 9.61612C190.501 12.0453 190.506 14.4745 190.512 16.8982C190.506 17.091 190.495 17.2782 190.495 17.471C190.49 19.5036 190.479 21.5417 190.473 23.5743C190.358 23.5798 190.237 23.5853 190.121 23.5908C189.262 23.5743 188.402 23.5468 187.543 23.6073C187.4 23.7561 187.477 23.9378 187.471 24.1031C187.455 26.0586 187.449 28.0195 187.444 29.975C192.792 29.975 198.147 29.975 203.495 29.975C203.495 28.0085 203.495 26.0365 203.49 24.07C203.501 23.9158 203.6 23.723 203.407 23.5963ZM201.964 26.9068C201.942 26.9179 201.909 26.9234 201.881 26.9234C201.909 26.9124 201.936 26.9068 201.964 26.9068ZM197.965 12.9872C197.97 12.9927 197.981 12.9927 197.987 12.9983C197.959 13.0203 197.937 13.0368 197.921 13.0588C197.932 13.0368 197.943 13.0148 197.959 12.9983C197.959 12.9927 197.959 12.9872 197.965 12.9872ZM195.122 26.1577C195.122 26.1357 195.117 26.1136 195.111 26.0916C195.134 26.1136 195.15 26.1357 195.172 26.1577C195.15 26.1577 195.134 26.1577 195.122 26.1577ZM192.809 13.1855C192.803 13.1855 192.803 13.1855 192.809 13.1855ZM199.237 22.2082C199.243 22.2082 199.243 22.2082 199.243 22.2082H199.237ZM197.926 13.0258C197.932 13.0203 197.932 13.0203 197.937 13.0148C197.937 13.0203 197.932 13.0203 197.926 13.0258ZM198.945 28.5979C198.945 28.6034 198.94 28.6089 198.94 28.6144C198.934 28.6089 198.929 28.6089 198.929 28.6034C198.929 28.6034 198.94 28.6034 198.945 28.5979ZM190.628 9.35172C190.617 9.3352 190.611 9.30215 190.611 9.2746C190.617 9.30215 190.622 9.32418 190.628 9.35172ZM191.884 0.108703C191.795 0.114211 191.713 0.119719 191.625 0.136244C191.691 0.0811604 191.79 0.0921775 191.884 0.108703ZM190.887 0.560387C190.848 0.598946 190.826 0.637504 190.804 0.676062C190.804 0.626487 190.837 0.587929 190.887 0.560387ZM190.54 23.5192C190.523 23.5412 190.507 23.5578 190.484 23.5743C190.495 23.5578 190.518 23.5412 190.54 23.5192Z" fill="#111C36" fill-opacity="0.1"/>
<path d="M145.712 21.079C145.657 20.9578 145.602 20.8311 145.547 20.71C145.211 19.9718 144.881 19.2227 144.462 18.5231C144.209 17.774 143.751 17.135 143.421 16.4244C143.035 15.4715 142.573 14.5571 142.082 13.6593C141.52 12.3978 140.898 11.164 140.259 9.94112C139.951 9.21952 139.615 8.51445 139.218 7.83692C139.124 7.66066 139.031 7.48439 138.943 7.30812C138.684 6.77932 138.43 6.24501 138.177 5.71621C137.874 4.97258 137.538 4.25099 137.108 3.57346C136.838 3.23194 136.789 2.79678 136.602 2.4167C136.216 1.6235 135.748 0.868856 135.483 0.0205688C133.798 0.0205688 132.107 0.0205688 130.421 0.0205688C128.829 0.0205688 127.237 0.0205688 125.645 0.0205688C126.378 1.59596 127.149 3.16033 127.964 4.69716C128.014 4.79631 128.069 4.90097 128.119 5.00012C128.119 5.15435 128.201 5.27003 128.295 5.37469C128.333 5.43528 128.372 5.50138 128.405 5.56198C128.4 5.71621 128.488 5.83188 128.57 5.94205C129.083 6.96109 129.589 7.98014 130.102 8.99919C130.416 9.67121 130.724 10.3487 131.104 10.9877C131.38 11.6432 131.705 12.2767 132.052 12.8991C132.443 13.7364 132.817 14.5847 133.291 15.3779C133.621 16.1656 134.007 16.9312 134.431 17.6748C134.828 18.5892 135.28 19.4761 135.759 20.3464C135.764 23.5578 135.77 26.7691 135.77 29.9805C139.113 29.9805 142.457 29.9805 145.8 29.9805C145.795 27.1988 145.795 24.4171 145.789 21.6354C145.784 21.4481 145.85 21.2498 145.712 21.079ZM136.447 25.2654C136.425 25.3039 136.403 25.3535 136.37 25.4031C136.365 25.381 136.365 25.3645 136.359 25.348C136.387 25.3149 136.414 25.2874 136.447 25.2654ZM136.293 27.5623C136.293 27.5734 136.293 27.5789 136.293 27.5899C136.282 27.5844 136.271 27.5844 136.254 27.5789C136.266 27.5679 136.277 27.5623 136.293 27.5623Z" fill="#111C36" fill-opacity="0.1"/>
<path d="M33.9097 29.8814C33.4249 28.9009 32.8135 27.9865 32.2682 27.0446C31.161 25.1222 30.0703 23.1887 28.9577 21.2718C27.9882 19.5973 26.9857 17.9393 26.0272 16.2592C25.884 16.0114 25.7518 15.9342 25.4819 15.9342C23.3777 15.9453 21.279 15.9453 19.1748 15.9342C18.8884 15.9342 18.7176 16.0114 18.5689 16.2702C17.7426 17.6969 16.988 19.1621 16.0901 20.5502C15.9028 20.8367 15.9965 20.9138 16.3215 20.9138C18.1062 20.9028 19.8854 20.9193 21.6701 20.8973C22.0061 20.8918 22.1934 21.0074 22.3476 21.2829C22.6561 21.8337 22.9811 22.379 23.3006 22.9298C23.598 23.4476 23.8845 23.9709 24.1819 24.4942C23.9781 24.6044 23.8018 24.5603 23.6311 24.5603C20.4968 24.5658 17.3571 24.5603 14.2228 24.5658C14.03 24.5658 13.8372 24.5107 13.694 24.7586C12.7355 26.4387 11.7551 28.1022 10.7856 29.7712C10.703 29.8208 10.6864 29.8979 10.703 29.9805C18.4422 29.9805 26.1814 29.9805 33.9207 29.9805C33.9152 29.9475 33.9097 29.9144 33.9097 29.8814Z" fill="#111C36" fill-opacity="0.1"/>
<path d="M236.848 28.9284C236.815 28.9284 236.782 28.9284 236.755 28.9284C236.248 28.1903 235.747 27.4522 235.24 26.7196C235.135 26.3726 234.81 26.1853 234.65 25.8768C234.617 25.6895 234.513 25.5463 234.364 25.4251C234.182 25.0671 233.934 24.7586 233.686 24.4446C233.626 24.2133 233.494 24.026 233.317 23.8607C233.196 23.6018 233.037 23.3705 232.849 23.1557C232.656 22.7976 232.431 22.4561 232.172 22.1476C231.136 20.5282 230.073 18.9308 228.96 17.3664C228.387 16.419 227.76 15.4991 227.093 14.6177C227.065 14.4194 226.922 14.2817 226.818 14.1275C226.278 13.3343 225.721 12.5411 225.176 11.7534C224.983 11.3347 224.719 10.9657 224.427 10.6132V10.6076C223.639 9.34072 222.791 8.10685 221.932 6.88399C221.882 6.81789 221.833 6.74629 221.788 6.68019C221.755 6.56451 221.695 6.46536 221.596 6.39375C221.508 6.24502 221.425 6.09079 221.326 5.94757C220.004 3.97007 218.682 1.99258 217.36 0.0150757C213.763 0.0150757 210.16 0.0150757 206.563 0.0150757C207.329 1.16081 208.095 2.30655 208.86 3.44678C210.061 5.23149 211.262 7.0162 212.468 8.8009C212.601 9.07632 212.771 9.3242 212.97 9.55004C213.73 10.7564 214.512 11.9462 215.349 13.1029C216.357 14.7169 217.431 16.2868 218.511 17.8566C218.533 17.8897 218.555 17.9282 218.577 17.9613C218.709 18.1541 218.847 18.3469 218.979 18.5397C219.508 19.4265 220.086 20.2803 220.698 21.1121C221.513 22.4176 222.361 23.701 223.27 24.9514C223.408 25.2929 223.639 25.5738 223.865 25.8603C223.92 26.0145 223.97 26.1687 224.124 26.2569C224.229 26.4717 224.339 26.681 224.521 26.8408C224.68 27.1437 224.851 27.4412 225.088 27.6835C225.165 27.9094 225.308 28.0967 225.474 28.2729C225.705 28.7026 225.975 29.1047 226.272 29.4848C226.36 29.617 226.449 29.7437 226.537 29.8759C226.537 29.9089 226.537 29.942 226.537 29.9695C229.946 29.9695 233.35 29.9695 236.76 29.9695C236.969 29.6445 236.793 29.2755 236.848 28.9284ZM221.623 15.4936C221.618 15.455 221.596 15.4054 221.563 15.3448C221.601 15.3393 221.634 15.3614 221.64 15.444C221.64 15.466 221.629 15.477 221.623 15.4936ZM222.659 19.4981C222.664 19.4981 222.67 19.4981 222.681 19.5036C222.675 19.5091 222.67 19.5147 222.664 19.5257C222.664 19.5147 222.659 19.5091 222.659 19.4981ZM229.616 27.5458C229.638 27.5568 229.66 27.5789 229.671 27.6174C229.665 27.6174 229.665 27.6174 229.66 27.6229C229.649 27.5954 229.632 27.5679 229.616 27.5458ZM229.588 24.1582C229.583 24.1692 229.577 24.1802 229.577 24.1912C229.572 24.1802 229.572 24.1692 229.566 24.1582C229.572 24.1582 229.583 24.1582 229.588 24.1582ZM229.109 24.1582C229.115 24.1582 229.115 24.1582 229.12 24.1582C229.115 24.1692 229.104 24.1802 229.098 24.1912C229.093 24.1857 229.087 24.1802 229.087 24.1747C229.093 24.1692 229.104 24.1637 229.109 24.1582C229.109 24.1527 229.109 24.1527 229.109 24.1582Z" fill="#111C36" fill-opacity="0.1"/>
<path d="M129.364 20.1812C126.736 20.1867 124.114 20.1812 121.487 20.1867C121.316 20.1867 121.134 20.1261 120.98 20.2473C120.886 20.4125 120.93 20.5888 120.93 20.7596C120.925 21.6795 120.914 22.5993 120.936 23.5137C120.947 23.8938 120.815 23.9985 120.446 23.9875C119.113 23.9654 117.78 23.9764 116.447 23.9819C116.298 23.9819 116.127 23.9103 116 24.0591C115.929 25.998 115.962 27.9425 115.984 29.8814C115.984 29.9144 115.989 29.942 115.989 29.975C120.638 29.975 125.288 29.975 129.937 29.975C129.937 29.942 129.937 29.9089 129.937 29.8814C129.937 27.2429 129.937 24.5989 129.937 21.9604C129.937 21.8337 129.937 21.707 129.937 21.5803C129.937 21.3875 129.937 21.2002 129.937 21.0074C129.986 20.1702 129.986 20.1812 129.364 20.1812Z" fill="#111C36" fill-opacity="0.1"/>
<path d="M114.359 20.9138C114.365 20.2473 114.376 19.5863 114.376 18.9198C114.37 16.149 114.365 13.3783 114.359 10.6076C114.359 9.5886 114.359 8.56955 114.359 7.55051C114.359 6.18444 114.359 4.81836 114.359 3.45229C114.359 2.30655 114.365 1.16081 114.365 0.0150757C113.279 0.0150757 112.2 0.0150757 111.115 0.0150757C110.189 0.0150757 109.269 0.0150757 108.344 0.0150757C107.038 0.0150757 105.733 0.0150757 104.428 0.0150757C104.394 0.0150757 104.361 0.0150757 104.334 0.0150757C104.339 0.158293 104.356 0.30151 104.356 0.439219C104.356 10.1449 104.356 19.8452 104.356 29.5509C104.356 29.6941 104.339 29.8373 104.334 29.975C107.677 29.975 111.021 29.975 114.365 29.975C114.365 29.942 114.359 29.9089 114.359 29.8814C114.359 28.1958 114.359 26.5103 114.359 24.8247C114.359 23.5192 114.359 22.2193 114.359 20.9138ZM110.239 9.14793C110.266 9.11488 110.299 9.09285 110.343 9.09835C110.305 9.10937 110.266 9.12589 110.239 9.14793ZM107.485 16.0003C107.485 16.0279 107.485 16.0499 107.485 16.0719C107.474 16.0664 107.457 16.0609 107.441 16.0609C107.457 16.0389 107.468 16.0224 107.485 16.0003ZM111.137 8.88353C111.23 8.82294 111.34 8.78438 111.451 8.76234C111.346 8.81192 111.241 8.85048 111.137 8.88353ZM104.444 9.6547C104.444 9.63817 104.444 9.62165 104.444 9.60512C104.483 9.63817 104.538 9.67122 104.587 9.69876C104.543 9.68224 104.494 9.67122 104.444 9.6547Z" fill="#111C36" fill-opacity="0.1"/>
<path d="M218.83 21.09C218.726 20.9358 218.616 20.776 218.511 20.6218C218.439 20.3959 218.302 20.2142 218.136 20.0489C217.277 18.7159 216.418 17.3884 215.525 16.0113C215.228 16.4465 214.964 16.821 214.71 17.1956C213.768 18.5892 212.826 19.9828 211.884 21.3819C211.824 21.4535 211.752 21.5196 211.697 21.5913C210.766 22.9463 209.83 24.3069 208.904 25.6674C207.951 27.0666 207.004 28.4712 206.057 29.8758C206.034 29.9089 206.012 29.9474 205.99 29.9805C209.78 29.9805 213.57 29.9805 217.36 29.9805C217.376 29.9529 217.387 29.9254 217.382 29.8923C218.5 28.0526 219.613 26.2073 220.736 24.3675C220.846 24.1857 220.813 24.048 220.703 23.8938C220.075 22.9628 219.453 22.0264 218.83 21.09Z" fill="#111C36" fill-opacity="0.1"/>
<path d="M37.0104 3.3862C36.9388 3.27052 36.9058 3.08874 36.6964 3.05569C36.6964 3.254 36.6964 3.42475 36.6964 3.60102C36.6964 8.85048 36.6964 14.0944 36.6964 19.3439C36.6964 22.8913 36.6909 26.4332 36.6854 29.9805C39.5828 29.9805 42.4802 29.9805 45.3776 29.9805C45.3776 25.8162 45.3776 21.6464 45.3831 17.4821C45.3831 17.2397 45.3391 17.0249 45.2069 16.8101C42.4692 12.3373 39.7426 7.85898 37.0104 3.3862Z" fill="#111C36" fill-opacity="0.1"/>
<path d="M65.3458 29.7932C65.3128 29.7216 65.2797 29.65 65.2412 29.5839C63.506 26.7251 61.7709 23.8662 60.0247 21.0129C58.7193 18.8757 57.4083 16.7439 56.0973 14.6122C56.0808 14.5681 56.0753 14.5186 56.0532 14.48C53.8058 10.7894 51.5529 7.10431 49.3165 3.40821C48.6335 2.2845 47.9008 1.18834 47.2949 0.0205688C43.7586 0.0205688 40.2222 0.0205688 36.6913 0.0205688C39.9578 5.40774 43.2298 10.7949 46.4962 16.1766C47.361 17.5977 48.2369 19.0134 49.1127 20.429C49.983 21.8832 50.8423 23.3374 51.7181 24.7861C52.7537 26.4882 53.8003 28.1848 54.8414 29.8869C54.8359 29.9199 54.8359 29.9475 54.8414 29.9805C58.3777 29.9805 61.9141 29.9805 65.445 29.9805C65.4119 29.9144 65.3789 29.8538 65.3458 29.7932Z" fill="#111C36" fill-opacity="0.1"/>
<path d="M65.4394 6.79035C65.4394 4.53193 65.4449 2.2735 65.4449 0.0150757C62.5475 0.0150757 59.6501 0.0150757 56.7527 0.0150757C56.7583 0.207868 56.7693 0.395153 56.7693 0.587945C56.7693 4.5154 56.7693 8.44286 56.7693 12.3648C56.7693 12.5851 56.7693 12.8 56.896 13.0038C57.6782 14.2707 58.4493 15.5431 59.226 16.8156C59.5345 17.3333 59.8374 17.8511 60.1569 18.3634C60.9611 19.6689 61.7654 20.9744 62.5751 22.2743C62.5751 22.3459 62.5806 22.4176 62.6632 22.4506C62.823 22.7095 62.9882 22.9684 63.1479 23.2273C63.1755 23.4201 63.2636 23.5798 63.4179 23.6955C63.517 23.8552 63.6217 24.0095 63.7208 24.1692C63.8034 24.4171 63.9577 24.6264 64.1174 24.8302C64.2056 25.0395 64.2772 25.2654 64.47 25.4141C64.5416 25.5353 64.6187 25.662 64.6903 25.7832C64.8941 26.1908 65.1144 26.5929 65.4504 26.973C65.4504 26.5048 65.4504 26.0971 65.4504 25.684C65.4504 24.6044 65.4504 23.5247 65.4504 22.4451C65.4504 22.379 65.4504 22.3184 65.4504 22.2523C65.456 22.076 65.4725 21.9053 65.4725 21.729C65.4725 16.9257 65.4725 12.1224 65.4725 7.31915C65.4615 7.13738 65.4449 6.96662 65.4394 6.79035Z" fill="#111C36" fill-opacity="0.1"/>
</svg>
