<svg width="208" height="56" viewBox="0 0 208 56" fill="none" xmlns="http://www.w3.org/2000/svg">
<g opacity="0.08" clip-path="url(#clip0_497_17483)">
<path d="M48.7319 20.8029V14.295C48.7319 13.6742 48.4021 13.1005 47.8709 12.7916L26.0878 0.164021C25.2794 -0.303775 24.2696 0.284647 24.2696 1.22612V45.2372C24.2696 45.5667 23.9194 45.7756 23.6334 45.6167L19.9883 43.6043L19.8395 3.1738C19.8395 2.50594 19.1215 2.0911 18.5495 2.42651L12.3946 6.05413C11.8634 6.36305 11.5365 6.93676 11.5365 7.55461V39.2971L7.76885 37.1199V10.2643C7.76885 9.59643 7.05383 9.1816 6.4789 9.51405L0.860936 12.7739C0.326864 13.0828 0 13.6565 0 14.2773V40.6416C0 41.2624 0.326864 41.8332 0.860936 42.1421L23.4087 55.2668C23.9398 55.5758 24.5965 55.5758 25.1276 55.2668L47.8709 42.0273C48.4021 41.7184 48.7319 41.1447 48.7319 40.5269V28.0847C48.7319 27.1285 47.9614 26.3518 47.0129 26.3518H36.6934C36.2177 26.3518 35.8324 26.7401 35.8324 27.2197V32.7332C35.8324 33.2128 36.2177 33.6011 36.6934 33.6011H40.7675V37.1228L32.5346 42.1303C32.2486 42.3039 31.8838 42.0979 31.8838 41.7596V13.5271C31.8838 13.1917 32.2457 12.9828 32.5317 13.1534L40.6274 17.9667C40.7587 18.0432 40.8375 18.1874 40.8375 18.3404V20.8C40.8375 21.2796 41.2228 21.6679 41.6985 21.6679H47.8739C48.3466 21.6679 48.7319 21.2825 48.7319 20.8029Z" fill="#111C36"/>
<path opacity="0.75" d="M19.9281 26.5977L19.9894 43.6119L11.5376 39.3164V26.5977H19.9281Z" fill="url(#paint0_linear_497_17483)"/>
<path d="M95.7913 13.5326L89.3766 40.5794C89.0118 42.1181 87.6489 43.2038 86.0788 43.2038C84.5174 43.2038 83.1604 42.1299 82.7868 40.6029L77.8255 20.3171L72.8992 40.6118C72.5314 42.1328 71.1773 43.2038 69.6247 43.2038C68.075 43.2038 66.7238 42.1358 66.3502 40.6177L59.7312 13.5384C59.5766 12.9088 60.0523 12.2969 60.6943 12.2969H64.4445C64.9144 12.2969 65.3171 12.6264 65.4163 13.0883L70.1121 32.9299L74.4313 13.0942C74.5276 12.6293 74.9333 12.2969 75.4032 12.2969H80.563C81.0299 12.2969 81.4326 12.6264 81.5319 13.0854L85.8745 32.1179L90.4973 13.1001C90.5907 12.6323 90.9993 12.2969 91.472 12.2969H94.8195C95.4674 12.2969 95.9401 12.903 95.7913 13.5326Z" fill="#111C36"/>
<path d="M112.519 41.4505C110.891 42.7951 108.67 43.4659 105.856 43.4659C102.894 43.4659 100.539 42.6068 98.7909 40.8915C97.0427 39.1733 96.1701 36.5254 96.1701 32.9419V30.1204C96.1701 26.6282 97.0135 24.0067 98.7033 22.2591C100.393 20.5144 102.716 19.6377 105.678 19.6377C108.582 19.6377 110.882 20.5203 112.586 22.2797C114.291 24.042 115.14 26.6546 115.14 30.1175V32.2064C115.14 32.7595 114.696 33.2067 114.148 33.2067H101.633V33.8334C101.633 35.5663 102.019 36.8049 102.789 37.5493C103.56 38.2966 104.654 38.6673 106.078 38.6673C106.078 38.6673 108.83 38.5878 109.607 36.3136C109.691 36.0665 109.901 35.8899 110.158 35.8899H114.372C114.69 35.8899 114.953 36.1694 114.918 36.4872C114.539 39.7853 112.519 41.4505 112.519 41.4505ZM102.678 25.5043C101.981 26.2516 101.633 27.5049 101.633 29.2672V29.4026H109.63V28.82C109.63 25.8632 108.311 24.3863 105.675 24.3863C104.374 24.3863 103.373 24.7599 102.678 25.5043Z" fill="#111C36"/>
<path d="M124.083 41.0531V42.8978C124.083 43.0655 123.946 43.2038 123.779 43.2038H119.011C118.844 43.2038 118.707 43.0655 118.707 42.8978V12.8088C118.707 12.5264 118.935 12.2969 119.215 12.2969H123.709C123.989 12.2969 124.217 12.5264 124.217 12.8088V22.2853C125.49 20.526 127.208 19.6433 129.371 19.6433C131.682 19.6433 133.562 20.4348 135.012 22.0176C136.463 23.6005 137.19 26.0042 137.19 29.2287V33.842C137.19 37.0665 136.463 39.4791 135.012 41.0737C133.562 42.6712 131.738 43.4686 129.546 43.4686C127.209 43.4715 125.387 42.6654 124.083 41.0531ZM131.68 33.6625V29.4523C131.68 27.7194 131.347 26.4749 130.681 25.7129C130.016 24.9509 129.117 24.5714 127.994 24.5714C126.809 24.5714 125.875 24.9891 125.195 25.8247C124.515 26.6603 124.173 27.8724 124.173 29.4523V33.6625C124.173 35.2454 124.521 36.4546 125.218 37.2901C125.913 38.1257 126.885 38.5435 128.128 38.5435C130.495 38.5435 131.68 36.9165 131.68 33.6625Z" fill="#111C36"/>
<path d="M146.123 35.4582C146.313 35.4582 146.459 35.6112 146.47 35.7995C146.529 36.7057 146.829 37.4059 147.369 37.8973C147.976 38.4504 148.858 38.7269 150.013 38.7269C151.108 38.7269 151.975 38.368 152.611 37.6501C153.247 36.9322 153.565 35.9643 153.565 34.7404V33.9342C153.565 32.5897 153.224 31.5599 152.544 30.845C151.861 30.1271 150.868 29.7711 149.567 29.7711H148.356C148.166 29.7711 148.014 29.6182 148.014 29.4269V25.1461C148.014 24.9549 148.166 24.8019 148.356 24.8019H149.523C150.647 24.8019 151.522 24.4724 152.144 23.8163C152.765 23.1602 153.078 22.2482 153.078 21.0831V20.4123C153.078 19.2796 152.789 18.3911 152.211 17.7467C151.633 17.1053 150.839 16.7847 149.835 16.7847C148.799 16.7847 148 17.0759 147.436 17.6585C146.934 18.1792 146.654 19.1148 146.602 20.0328C146.59 20.2152 146.447 20.3623 146.266 20.3623H141.611C141.419 20.3623 141.261 20.2005 141.267 20.0063C141.334 17.5525 142.11 15.3695 143.596 13.9867C145.151 12.5392 147.305 11.8154 150.06 11.8154C152.754 11.8154 154.873 12.5539 156.413 14.0308C157.954 15.5078 158.725 17.4878 158.725 19.9651V20.6359C158.725 21.9804 158.413 23.1808 157.791 24.2429C157.169 25.305 156.279 26.1465 155.126 26.7731C156.46 27.341 157.473 28.2354 158.17 29.4622C158.865 30.6861 159.215 32.1631 159.215 33.896V34.7463C159.215 36.5674 158.83 38.1503 158.059 39.4948C157.289 40.8394 156.209 41.875 154.817 42.6076C153.425 43.3402 151.855 43.705 150.107 43.705C147.232 43.705 145.005 43.0106 143.421 41.622C141.912 40.301 141.124 38.2356 141.048 35.8525C141.042 35.6524 141.206 35.4847 141.404 35.4847L146.123 35.4582Z" fill="#111C36"/>
<path d="M180.211 22.0823C179.954 22.0823 179.753 21.8764 179.735 21.6175C179.647 20.3818 179.201 19.2049 178.395 18.3811C177.491 17.4544 176.21 16.9925 174.552 16.9925C172.687 16.9925 171.33 17.575 170.487 18.7371C169.643 19.9022 169.22 21.8116 169.22 24.4713V31.144C169.22 33.6831 169.672 35.5101 170.574 36.6311C171.476 37.7491 172.877 38.311 174.774 38.311C176.551 38.311 177.847 37.8462 178.661 36.9223C179.475 35.9985 179.884 34.5922 179.884 32.7122V31.2352H174.815C174.622 31.2352 174.464 31.0764 174.464 30.8822V26.7485C174.464 26.5543 174.622 26.3954 174.815 26.3954H184.901C185.271 26.3954 185.572 26.6985 185.572 27.0721V31.6795C185.572 39.5908 181.883 43.548 174.508 43.548C167.075 43.548 163.357 39.4437 163.357 31.2323V24.1565C163.357 15.9451 167.104 11.8408 174.596 11.8408C177.943 11.8408 180.608 12.7293 182.592 14.5064C184.466 16.1863 185.455 18.6518 185.56 21.5616C185.569 21.844 185.338 22.0794 185.058 22.0794L180.211 22.0823Z" fill="#111C36"/>
<path d="M191.348 41.0945C189.673 39.5117 188.838 37.0491 188.838 33.7039V29.3584C188.838 26.0427 189.676 23.5978 191.348 22.012C193.021 20.4291 195.309 19.6377 198.212 19.6377C201.084 19.6377 203.352 20.4291 205.009 22.012C206.667 23.5948 207.499 26.0427 207.499 29.3584V33.7039C207.499 37.0491 206.67 39.5117 205.009 41.0945C203.352 42.6774 201.084 43.4688 198.212 43.4688C195.312 43.4688 193.023 42.6774 191.348 41.0945ZM202.036 33.6598V29.4496C202.036 26.1957 200.763 24.5687 198.215 24.5687C195.609 24.5687 194.305 26.1957 194.305 29.4496V33.6598C194.305 36.9138 195.609 38.5437 198.215 38.5437C200.76 38.5408 202.036 36.9138 202.036 33.6598Z" fill="#111C36"/>
</g>
<defs>
<linearGradient id="paint0_linear_497_17483" x1="13.309" y1="41.7279" x2="18.4383" y2="28.111" gradientUnits="userSpaceOnUse">
<stop stop-color="#050215"/>
<stop offset="1" stop-color="white" stop-opacity="0"/>
</linearGradient>
<clipPath id="clip0_497_17483">
<rect width="207.5" height="55.5" fill="white"/>
</clipPath>
</defs>
</svg>
