<svg width="32" height="32" viewBox="0 0 32 32" fill="none" xmlns="http://www.w3.org/2000/svg">
<path d="M9.65425 8C5.13718 8 1.47534 11.5819 1.47534 16C1.47534 20.4181 5.13745 24 9.65425 24C14.171 24 17.8332 20.4184 17.8332 16C17.8332 11.5816 14.1715 8 9.65425 8ZM22.7156 8.46863C20.457 8.46863 18.6264 11.8414 18.6264 16.0001C18.6264 20.1589 20.4572 23.5319 22.7158 23.5319C24.9745 23.5319 26.8053 20.1591 26.8053 16.0001H26.805C26.805 11.8402 24.9744 8.46863 22.7157 8.46863H22.7156ZM29.0369 9.2531C28.2428 9.2531 27.5989 12.2741 27.5989 16.0001C27.5989 19.7262 28.2424 22.7472 29.0369 22.7472C29.8315 22.7472 30.4753 19.7254 30.4753 16C30.4753 12.2738 29.8312 9.2531 29.037 9.2531H29.0369Z" fill="#AA918F"/>
</svg>
