<svg width="32" height="32" viewBox="0 0 32 32" fill="none" xmlns="http://www.w3.org/2000/svg">
<path d="M23.3623 25.1616C23.291 25.3383 23.1824 25.4978 23.044 25.6294C22.9055 25.761 22.7403 25.8617 22.5594 25.9247C22.3785 25.9877 22.1862 26.0116 21.9953 25.9948C21.8044 25.9779 21.6193 25.9207 21.4525 25.827L16.2782 21.8336L12.9572 24.8767C12.8802 24.9333 12.79 24.9697 12.6951 24.9825C12.6002 24.9954 12.5035 24.9844 12.414 24.9504L13.0506 19.2928L13.071 19.3088L13.084 19.1971C13.084 19.1971 22.3951 10.7773 22.7744 10.4185C23.1584 10.0607 23.0317 9.9831 23.0317 9.9831C23.0535 9.54666 22.3426 9.9831 22.3426 9.9831L10.0057 17.8663L4.86793 16.1284C4.86793 16.1284 4.07883 15.8473 4.00449 15.2291C3.92634 14.6158 4.89365 14.2826 4.89365 14.2826L25.3208 6.22238C25.3208 6.22238 27 5.47927 27 6.70989L23.3623 25.1616Z" fill="#957673" fill-opacity="0.8"/>
</svg>
