<svg width="32" height="32" viewBox="0 0 32 32" fill="none" xmlns="http://www.w3.org/2000/svg">
<path d="M29.4156 9.1242C29.2562 8.51923 28.9437 7.96753 28.5094 7.52432C28.075 7.08111 27.5341 6.76193 26.9406 6.59873C24.7562 6 16 6 16 6C16 6 7.24375 6 5.05937 6.59554C4.46569 6.75821 3.92445 7.07721 3.49002 7.52051C3.05558 7.9638 2.74325 8.51578 2.58438 9.12102C2 11.3503 2 16 2 16C2 16 2 20.6497 2.58438 22.8758C2.90625 24.1051 3.85625 25.0732 5.05937 25.4013C7.24375 26 16 26 16 26C16 26 24.7562 26 26.9406 25.4013C28.1469 25.0732 29.0938 24.1051 29.4156 22.8758C30 20.6497 30 16 30 16C30 16 30 11.3503 29.4156 9.1242ZM13.2188 20.2675V11.7325L20.4688 15.9682L13.2188 20.2675Z" fill="#AA918F"/>
</svg>
