<svg width="16" height="16" viewBox="0 0 16 16" fill="none" xmlns="http://www.w3.org/2000/svg">
<path d="M7.83849 2.32133C7.85338 2.29241 7.87638 2.26806 7.90488 2.25104C7.93339 2.23402 7.96626 2.225 7.99981 2.225C8.03335 2.225 8.06623 2.23402 8.09473 2.25104C8.12324 2.26806 8.14623 2.29241 8.16113 2.32133L9.96879 5.84583C9.98167 5.87104 10.0007 5.89285 10.0243 5.90939C10.0479 5.92593 10.0753 5.93671 10.1042 5.94079L14.1458 6.50603C14.1791 6.51068 14.2103 6.52419 14.236 6.54503C14.2617 6.56588 14.2808 6.59323 14.2912 6.62399C14.3016 6.65475 14.3028 6.68769 14.2948 6.71909C14.2867 6.75048 14.2697 6.77908 14.2456 6.80164L11.3209 9.545C11.3001 9.56465 11.2845 9.5889 11.2755 9.61564C11.2665 9.64239 11.2644 9.67084 11.2694 9.69853L11.9597 13.5724C11.9654 13.6042 11.9617 13.637 11.9491 13.667C11.9364 13.697 11.9153 13.7229 11.8881 13.742C11.8608 13.761 11.8287 13.7723 11.7951 13.7746C11.7616 13.7769 11.728 13.7701 11.6983 13.755L8.08371 11.9259C8.05784 11.9127 8.02905 11.9059 7.99981 11.9059C7.97057 11.9059 7.94178 11.9127 7.91591 11.9259L4.30167 13.755C4.27194 13.7701 4.2384 13.7769 4.20486 13.7746C4.17133 13.7723 4.13913 13.761 4.11192 13.742C4.08472 13.7229 4.06358 13.697 4.05091 13.667C4.03825 13.637 4.03455 13.6042 4.04025 13.5724L4.7309 9.69853C4.73586 9.67081 4.73372 9.64234 4.72469 9.6156C4.71565 9.58885 4.69999 9.56462 4.67905 9.545L1.75439 6.80164C1.73031 6.77906 1.71329 6.75043 1.70524 6.71901C1.6972 6.68759 1.69845 6.65463 1.70887 6.62386C1.71929 6.59309 1.73846 6.56575 1.76419 6.54492C1.78993 6.5241 1.82121 6.51062 1.8545 6.50603L5.8958 5.94114C5.92467 5.93706 5.95208 5.92628 5.97567 5.90974C5.99926 5.8932 6.01831 5.87138 6.03119 5.84618L7.83885 2.32168L7.83849 2.32133Z" stroke="#6B7785" stroke-width="1.33"/>
</svg>
