<svg width="16" height="16" viewBox="0 0 16 16" fill="none" xmlns="http://www.w3.org/2000/svg">
<path fill-rule="evenodd" clip-rule="evenodd" d="M6.54877 0.989532C4.65259 0.989532 3.11544 2.52669 3.11544 4.42287C3.11544 6.31905 4.65259 7.85621 6.54877 7.85621C8.44495 7.85621 9.98212 6.31905 9.98212 4.42287C9.98212 2.52669 8.44495 0.989532 6.54877 0.989532ZM4.31544 4.42287C4.31544 3.18943 5.31533 2.18953 6.54877 2.18953C7.78222 2.18953 8.78212 3.18943 8.78212 4.42287C8.78212 5.6563 7.78222 6.65621 6.54877 6.65621C5.31533 6.65621 4.31544 5.6563 4.31544 4.42287ZM7.98113 9.13994L8.07972 8.986L2.71704 8.98641C1.8338 8.98641 1.1178 9.70238 1.1178 10.5857V10.9707C1.1178 11.5898 1.33864 12.1884 1.74061 12.6592C2.80957 13.911 4.4325 14.5205 6.54877 14.5205C7.17525 14.5205 7.75856 14.4671 8.29633 14.3588L8.46478 14.3249L8.35207 14.1952C8.11835 13.9263 7.91814 13.6276 7.75852 13.3055L7.72668 13.2412L7.65558 13.2508C7.31123 13.2971 6.94246 13.3205 6.54877 13.3205C4.74067 13.3205 3.46316 12.8284 2.65315 11.8799C2.43671 11.6264 2.3178 11.3041 2.3178 10.9707V10.5857C2.3178 10.3652 2.49655 10.1864 2.71705 10.1864L7.4973 10.1862L7.51967 10.117C7.63193 9.7695 7.78789 9.44169 7.98113 9.13994Z" fill="#6B7785"/>
<path d="M8.89454 10.9319L8.89445 10.932C8.57514 11.2515 8.57501 11.7694 8.89454 12.089L10.1673 13.3617C10.4867 13.6812 11.0048 13.6813 11.3243 13.3617C11.3244 13.3617 11.3244 13.3616 11.3244 13.3616L13.8697 10.8163C14.0243 10.6618 14.1041 10.4608 14.1092 10.2583C14.2845 10.6394 14.3822 11.0635 14.3822 11.5105C14.3822 13.1673 13.039 14.5105 11.3822 14.5105C9.72533 14.5105 8.3822 13.1673 8.3822 11.5105C8.3822 9.85359 9.72533 8.51047 11.3822 8.51047C12.2529 8.51047 13.0369 8.88138 13.5849 9.47381C13.2925 9.36154 12.9485 9.42339 12.7127 9.65917L10.7458 11.6261L10.0517 10.932C10.0517 10.932 10.0516 10.9319 10.0516 10.9319C9.73205 10.6123 9.214 10.6124 8.89454 10.9319Z" fill="#6B7785" stroke="#6B7785"/>
</svg>
