<svg width="16" height="16" viewBox="0 0 16 16" fill="none" xmlns="http://www.w3.org/2000/svg">
<path fill-rule="evenodd" clip-rule="evenodd" d="M0.364554 7.60167C2.51446 4.17184 5.0473 2.25 8.00003 2.25C10.9528 2.25 13.4856 4.17184 15.6355 7.60167L15.8852 8L15.6355 8.39833C13.4856 11.8282 10.9528 13.75 8.00003 13.75C5.0473 13.75 2.51446 11.8282 0.364554 8.39833L0.114868 8L0.364554 7.60167ZM1.89178 8C3.84401 10.9548 5.89092 12.25 8.00003 12.25C10.1091 12.25 12.1561 10.9548 14.1083 8C12.1561 5.04516 10.1091 3.75 8.00003 3.75C5.89092 3.75 3.84401 5.04516 1.89178 8Z" fill="#6B7785"/>
<path d="M9.66671 7.99998C9.66671 8.44201 9.49111 8.86593 9.17855 9.17849C8.86599 9.49105 8.44207 9.66665 8.00004 9.66665C7.55801 9.66665 7.13409 9.49105 6.82153 9.17849C6.50897 8.86593 6.33337 8.44201 6.33337 7.99998C6.33337 7.55795 6.50897 7.13403 6.82153 6.82147C7.13409 6.50891 7.55801 6.33331 8.00004 6.33331C8.44207 6.33331 8.86599 6.50891 9.17855 6.82147C9.49111 7.13403 9.66671 7.55795 9.66671 7.99998Z" fill="#6B7785"/>
</svg>
